<?xml version="1.0" standalone="no"?>
<!DOCTYPE svg PUBLIC "-//W3C//DTD SVG 20010904//EN"
 "http://www.w3.org/TR/2001/REC-SVG-20010904/DTD/svg10.dtd">
<svg version="1.0" xmlns="http://www.w3.org/2000/svg"
 width="2000.000000pt" height="1500.000000pt" viewBox="0 0 2000.000000 1500.000000"
 preserveAspectRatio="xMidYMid meet">

<g transform="translate(0.000000,1500.000000) scale(0.100000,-0.100000)"
fill="#000000" stroke="none">
<path d="M0 7500 l0 -7500 10000 0 10000 0 0 7500 0 7500 -10000 0 -10000 0 0
-7500z m3835 1408 c270 -41 533 -217 700 -467 100 -150 167 -322 202 -514 19
-110 21 -352 4 -477 -67 -474 -296 -967 -591 -1273 l-95 -99 -115 67 c-63 37
-116 68 -118 69 -1 2 22 54 52 117 98 209 163 423 210 701 45 261 51 337 51
688 0 281 -3 351 -19 435 -38 206 -86 315 -180 403 -88 83 -127 97 -276 97
-121 0 -128 -1 -191 -32 -125 -62 -209 -181 -254 -358 -36 -141 -45 -258 -45
-580 l0 -295 345 0 345 0 0 -130 0 -130 -345 0 -345 0 0 -280 0 -280 -321 0
-320 0 4 673 c4 727 5 736 62 912 176 542 667 841 1240 753z m10295 12 c188
-23 390 -98 524 -194 113 -81 231 -217 288 -331 48 -96 54 -86 -89 -146 -70
-30 -131 -54 -136 -54 -4 0 -22 34 -40 75 -83 191 -205 307 -382 362 -91 29
-251 31 -340 4 -221 -65 -394 -251 -485 -520 -45 -133 -63 -244 -62 -396 1
-477 204 -819 537 -905 83 -21 248 -21 322 0 174 51 324 184 403 358 l30 67
53 -21 c28 -11 89 -35 135 -52 53 -20 82 -37 82 -47 0 -8 -21 -53 -48 -99
-174 -309 -538 -496 -962 -494 -337 1 -625 118 -855 348 -178 178 -286 391
-331 649 -24 138 -15 368 21 504 55 213 145 379 288 529 265 278 649 411 1047
363z m-8328 -1047 l3 -1008 508 -3 507 -2 0 -145 0 -145 -825 0 -825 0 0 1155
0 1155 315 0 315 0 2 -1007z m1958 -3 l0 -1010 510 0 510 0 0 -145 0 -145
-830 0 -830 0 0 1148 c0 632 3 1152 7 1155 3 4 147 7 320 7 l313 0 0 -1010z
m2808 858 l3 -148 -316 0 -315 0 0 -1005 0 -1005 -315 0 -315 0 0 1005 0 1005
-315 0 -315 0 0 150 0 150 943 -2 942 -3 3 -147z m1982 2 l0 -150 -510 0 -510
0 0 -355 0 -355 395 0 396 0 -3 -147 -3 -148 -392 -3 -393 -2 0 -355 0 -355
510 0 510 0 0 -145 0 -145 -830 0 -830 0 0 1148 c0 632 3 1152 7 1155 3 4 377
7 830 7 l823 0 0 -150z m3440 -355 l0 -505 420 0 420 0 2 503 3 502 315 0 315
0 3 -1152 2 -1153 -320 0 -320 0 0 500 0 500 -420 0 -420 0 0 -500 0 -500
-320 0 -320 0 0 1148 c0 632 3 1152 7 1155 3 4 147 7 320 7 l313 0 0 -505z"/>
</g>
</svg>
