<?xml version="1.0" standalone="no"?>
<!DOCTYPE svg PUBLIC "-//W3C//DTD SVG 20010904//EN"
 "http://www.w3.org/TR/2001/REC-SVG-20010904/DTD/svg10.dtd">
<svg version="1.0" xmlns="http://www.w3.org/2000/svg"
 width="600.000000pt" height="195.000000pt" viewBox="0 0 600.000000 195.000000"
 preserveAspectRatio="xMidYMid meet">

<g transform="translate(0.000000,195.000000) scale(0.100000,-0.100000)"
fill="#000000" stroke="none">
<path d="M4231 1390 c-143 -30 -242 -135 -272 -288 -17 -88 -7 -231 22 -306
28 -76 93 -146 162 -177 90 -40 276 -38 380 3 l27 10 0 104 0 104 -60 0 -60 0
0 -59 c0 -57 -1 -59 -31 -70 -77 -27 -187 -3 -239 50 -57 60 -84 203 -61 324
25 133 97 195 226 195 42 0 76 -5 83 -12 7 -7 12 -35 12 -63 0 -29 2 -54 4
-56 2 -2 30 -2 60 -1 l57 4 -3 101 -3 101 -60 18 c-72 22 -184 30 -244 18z"/>
<path d="M510 1335 c0 -45 0 -45 35 -45 23 0 35 -5 35 -14 0 -16 -176 -530
-191 -558 -5 -9 -21 -18 -36 -20 -26 -3 -28 -7 -31 -50 l-3 -48 135 0 136 0 0
50 0 50 -36 0 c-27 0 -35 4 -31 14 3 8 11 32 18 55 l12 41 142 0 142 0 11 -39
c19 -60 16 -69 -20 -73 -32 -3 -33 -5 -36 -50 l-3 -48 150 0 151 0 0 49 0 50
-36 3 -36 3 -104 295 c-57 162 -111 314 -120 338 l-16 42 -134 0 -134 0 0 -45z
m248 -257 c27 -86 47 -160 44 -163 -3 -3 -52 -5 -109 -5 -88 0 -103 2 -103 16
0 31 102 326 110 318 4 -5 30 -80 58 -166z"/>
<path d="M1140 1335 c0 -43 1 -44 35 -51 l35 -6 0 -278 c0 -296 0 -295 -50
-302 -22 -3 -25 -8 -28 -50 l-3 -48 280 0 281 0 0 114 c0 128 1 126 -75 126
l-44 0 -3 -57 -3 -58 -107 -3 -108 -3 0 280 c0 300 -2 291 51 291 16 0 19 7
19 45 l0 45 -140 0 -140 0 0 -45z"/>
<path d="M1770 1336 c0 -45 10 -56 51 -56 19 0 19 -9 17 -287 l-3 -288 -32 -3
c-32 -3 -33 -4 -33 -53 l0 -49 280 0 280 0 0 114 c0 128 1 126 -76 126 l-44 0
0 -44 c0 -77 1 -76 -121 -76 l-109 0 0 269 c0 293 2 301 56 301 22 0 24 4 24
45 l0 45 -145 0 -145 0 0 -44z"/>
<path d="M2622 1283 l3 -98 57 -3 57 -3 3 43 3 43 58 3 57 3 0 -274 c0 -288
-1 -297 -46 -297 -44 0 -54 -10 -54 -56 l0 -44 165 0 165 0 0 50 0 50 -45 0
-45 0 0 285 0 285 54 0 c59 0 66 -7 66 -61 0 -30 0 -30 53 -27 l52 3 3 98 3
97 -306 0 -306 0 3 -97z"/>
<path d="M3300 1335 c0 -43 1 -44 35 -51 l35 -6 0 -277 c0 -293 -1 -301 -47
-301 -21 0 -23 -4 -23 -50 l0 -50 275 0 275 0 0 105 0 105 -39 0 c-22 0 -46 3
-55 6 -13 5 -16 -1 -16 -26 0 -65 -9 -70 -125 -70 l-105 0 0 110 0 110 135 0
135 0 0 60 0 60 -135 0 -135 0 0 105 0 105 89 0 c115 0 121 -3 121 -52 0 -37
2 -40 23 -34 12 3 39 6 60 6 l37 0 0 95 0 95 -270 0 -270 0 0 -45z"/>
<path d="M4658 1340 c-4 -45 5 -60 39 -60 l23 0 -2 -287 -3 -288 -32 -3 c-32
-3 -33 -4 -33 -53 l0 -49 140 0 140 0 0 49 c0 49 -1 50 -32 53 l-33 3 -3 118
-3 117 171 0 170 0 0 -108 c0 -115 -6 -132 -47 -132 -21 0 -23 -4 -23 -50 l0
-50 140 0 140 0 0 49 c0 49 -1 50 -32 53 l-33 3 -3 265 c-1 146 0 275 3 287 3
15 16 25 38 31 29 7 32 12 35 50 l3 42 -145 0 -146 0 0 -44 c0 -45 10 -56 51
-56 18 0 20 -7 17 -107 l-3 -108 -165 0 -165 0 -3 96 c-3 106 7 129 54 129 22
0 24 4 24 45 l0 45 -139 0 -139 0 -4 -40z"/>
</g>
</svg>
